{
	"asset":{
		"version":"2.0",
		"generator":"Created using the official Cinema 4D glTF Exporter 1.000x284978"
	},
	"bufferViews":[{
		"buffer":0,
		"byteOffset":0,
		"byteLength":1704,
		"target":34963
	},
	{
		"buffer":0,
		"byteOffset":1704,
		"byteLength":7680,
		"target":34962,
		"byteStride":32
	},
	{
		"buffer":1,
		"byteOffset":0,
		"byteLength":1104,
		"target":34963
	},
	{
		"buffer":1,
		"byteOffset":1104,
		"byteLength":8192,
		"target":34962,
		"byteStride":32
	},
	{
		"buffer":2,
		"byteOffset":0,
		"byteLength":1104,
		"target":34963
	},
	{
		"buffer":2,
		"byteOffset":1104,
		"byteLength":8192,
		"target":34962,
		"byteStride":32
	},
	{
		"buffer":3,
		"byteOffset":0,
		"byteLength":744,
		"target":34963
	},
	{
		"buffer":3,
		"byteOffset":744,
		"byteLength":5952,
		"target":34962,
		"byteStride":32
	},
	{
		"buffer":4,
		"byteOffset":0,
		"byteLength":744,
		"target":34963
	},
	{
		"buffer":4,
		"byteOffset":744,
		"byteLength":7936,
		"target":34962,
		"byteStride":32
	},
	{
		"buffer":5,
		"byteOffset":0,
		"byteLength":12,
		"target":34963
	},
	{
		"buffer":5,
		"byteOffset":12,
		"byteLength":128,
		"target":34962,
		"byteStride":32
	},
	{
		"buffer":6,
		"byteOffset":0,
		"byteLength":12,
		"target":34963
	},
	{
		"buffer":6,
		"byteOffset":12,
		"byteLength":128,
		"target":34962,
		"byteStride":32
	},
	{
		"buffer":7,
		"byteOffset":0,
		"byteLength":648,
		"target":34963
	},
	{
		"buffer":7,
		"byteOffset":648,
		"byteLength":4096,
		"target":34962,
		"byteStride":32
	},
	{
		"buffer":8,
		"byteOffset":0,
		"byteLength":648,
		"target":34963
	},
	{
		"buffer":8,
		"byteOffset":648,
		"byteLength":4096,
		"target":34962,
		"byteStride":32
	},
	{
		"buffer":9,
		"byteOffset":0,
		"byteLength":648,
		"target":34963
	},
	{
		"buffer":9,
		"byteOffset":648,
		"byteLength":4096,
		"target":34962,
		"byteStride":32
	},
	{
		"buffer":10,
		"byteOffset":0,
		"byteLength":648,
		"target":34963
	},
	{
		"buffer":10,
		"byteOffset":648,
		"byteLength":4096,
		"target":34962,
		"byteStride":32
	},
	{
		"buffer":11,
		"byteOffset":0,
		"byteLength":648,
		"target":34963
	},
	{
		"buffer":11,
		"byteOffset":648,
		"byteLength":4096,
		"target":34962,
		"byteStride":32
	},
	{
		"buffer":12,
		"byteOffset":0,
		"byteLength":552,
		"target":34963
	},
	{
		"buffer":12,
		"byteOffset":552,
		"byteLength":2816,
		"target":34962,
		"byteStride":32
	},
	{
		"buffer":13,
		"byteOffset":0,
		"byteLength":552,
		"target":34963
	},
	{
		"buffer":13,
		"byteOffset":552,
		"byteLength":2816,
		"target":34962,
		"byteStride":32
	},
	{
		"buffer":14,
		"byteOffset":0,
		"byteLength":552,
		"target":34963
	},
	{
		"buffer":14,
		"byteOffset":552,
		"byteLength":2816,
		"target":34962,
		"byteStride":32
	},
	{
		"buffer":15,
		"byteOffset":0,
		"byteLength":552,
		"target":34963
	},
	{
		"buffer":15,
		"byteOffset":552,
		"byteLength":2816,
		"target":34962,
		"byteStride":32
	},
	{
		"buffer":16,
		"byteOffset":0,
		"byteLength":552,
		"target":34963
	},
	{
		"buffer":16,
		"byteOffset":552,
		"byteLength":2816,
		"target":34962,
		"byteStride":32
	}],
	"scenes":[{
		"nodes":[0]
	}],
	"accessors":[{
		"bufferView":0,
		"type":"SCALAR",
		"componentType":5123,
		"count":852,
		"max":[239],
		"byteOffset":0,
		"min":[0]
	},
	{
		"bufferView":1,
		"type":"VEC3",
		"componentType":5126,
		"count":240,
		"max":[0.02772497572004795,
		0.1730053722858429,
		0.04928888380527496],
		"byteOffset":0,
		"min":[-0.02226838655769825,
		0.14815038442611695,
		-0.05008142441511154]
	},
	{
		"bufferView":1,
		"type":"VEC3",
		"componentType":5126,
		"count":240,
		"max":[0.9986562728881836,
		0.9999375343322754,
		0.9991562962532044],
		"byteOffset":12,
		"min":[-1.0,
		-0.9999688267707825,
		-0.9991562962532044]
	},
	{
		"bufferView":1,
		"type":"VEC2",
		"componentType":5126,
		"count":240,
		"max":[0.19957000017166139,
		0.21203598380088807],
		"byteOffset":24,
		"min":[0.0035983501002192499,
		0.01516999863088131]
	},
	{
		"bufferView":2,
		"type":"SCALAR",
		"componentType":5123,
		"count":552,
		"max":[255],
		"byteOffset":0,
		"min":[0]
	},
	{
		"bufferView":3,
		"type":"VEC3",
		"componentType":5126,
		"count":256,
		"max":[0.09617732465267182,
		0.16428712010383607,
		-0.03525088354945183],
		"byteOffset":0,
		"min":[-0.09617732465267182,
		-0.1730053722858429,
		-0.07639017701148987]
	},
	{
		"bufferView":3,
		"type":"VEC3",
		"componentType":5126,
		"count":256,
		"max":[0.9996563196182251,
		1.0,
		0.9998750686645508],
		"byteOffset":12,
		"min":[-0.9984375238418579,
		-1.0,
		-0.9965313076972961]
	},
	{
		"bufferView":3,
		"type":"VEC2",
		"componentType":5126,
		"count":256,
		"max":[0.8748400211334229,
		0.6333810091018677],
		"byteOffset":24,
		"min":[0.12372499704360962,
		0.0014169998466968537]
	},
	{
		"bufferView":4,
		"type":"SCALAR",
		"componentType":5123,
		"count":552,
		"max":[255],
		"byteOffset":0,
		"min":[0]
	},
	{
		"bufferView":5,
		"type":"VEC3",
		"componentType":5126,
		"count":256,
		"max":[0.09617732465267182,
		0.16428712010383607,
		0.07639017701148987],
		"byteOffset":0,
		"min":[-0.09617732465267182,
		-0.1730053722858429,
		0.03525088354945183]
	},
	{
		"bufferView":5,
		"type":"VEC3",
		"componentType":5126,
		"count":256,
		"max":[0.9996563196182251,
		1.0,
		0.9965313076972961],
		"byteOffset":12,
		"min":[-0.9984375238418579,
		-1.0,
		-0.9998750686645508]
	},
	{
		"bufferView":5,
		"type":"VEC2",
		"componentType":5126,
		"count":256,
		"max":[0.6465250253677368,
		0.6333810091018677],
		"byteOffset":24,
		"min":[0.12372499704360962,
		0.014667998999357224]
	},
	{
		"bufferView":6,
		"type":"SCALAR",
		"componentType":5123,
		"count":372,
		"max":[185],
		"byteOffset":0,
		"min":[0]
	},
	{
		"bufferView":7,
		"type":"VEC3",
		"componentType":5126,
		"count":186,
		"max":[0.047416966408491138,
		0.007756436709314585,
		0.05248429626226425],
		"byteOffset":0,
		"min":[-0.04619278013706207,
		0.00009503462206339464,
		0.044488679617643359]
	},
	{
		"bufferView":7,
		"type":"VEC3",
		"componentType":5126,
		"count":186,
		"max":[1.0,
		1.0,
		1.0],
		"byteOffset":12,
		"min":[-1.0,
		-1.0,
		-1.0]
	},
	{
		"bufferView":7,
		"type":"VEC2",
		"componentType":5126,
		"count":186,
		"max":[0.9954839944839478,
		0.997594952583313],
		"byteOffset":24,
		"min":[0.8343440294265747,
		0.7710520029067993]
	},
	{
		"bufferView":8,
		"type":"SCALAR",
		"componentType":5123,
		"count":372,
		"max":[247],
		"byteOffset":0,
		"min":[0]
	},
	{
		"bufferView":9,
		"type":"VEC3",
		"componentType":5126,
		"count":248,
		"max":[0.047416966408491138,
		0.007756436709314585,
		-0.044488679617643359],
		"byteOffset":0,
		"min":[-0.04619278013706207,
		0.00009503462206339464,
		-0.05248429626226425]
	},
	{
		"bufferView":9,
		"type":"VEC3",
		"componentType":5126,
		"count":248,
		"max":[1.0,
		1.0,
		1.0],
		"byteOffset":12,
		"min":[-1.0,
		-1.0,
		-1.0]
	},
	{
		"bufferView":9,
		"type":"VEC2",
		"componentType":5126,
		"count":248,
		"max":[0.8570749759674072,
		0.9803097248077393],
		"byteOffset":24,
		"min":[0.6959360241889954,
		0.7537670135498047]
	},
	{
		"bufferView":10,
		"type":"SCALAR",
		"componentType":5123,
		"count":6,
		"max":[3],
		"byteOffset":0,
		"min":[0]
	},
	{
		"bufferView":11,
		"type":"VEC3",
		"componentType":5126,
		"count":4,
		"max":[0.02788708172738552,
		0.11192548274993897,
		0.027970125898718835],
		"byteOffset":0,
		"min":[0.026622585952281953,
		0.10484108328819275,
		-0.027970125898718835]
	},
	{
		"bufferView":11,
		"type":"VEC3",
		"componentType":5126,
		"count":4,
		"max":[0.9844375252723694,
		0.1756875067949295,
		0.0],
		"byteOffset":12,
		"min":[0.9844375252723694,
		0.1756875067949295,
		0.0]
	},
	{
		"bufferView":11,
		"type":"VEC2",
		"componentType":5126,
		"count":4,
		"max":[0.871146023273468,
		0.07182799279689789],
		"byteOffset":24,
		"min":[0.34176599979400637,
		0.004784999415278435]
	},
	{
		"bufferView":12,
		"type":"SCALAR",
		"componentType":5123,
		"count":6,
		"max":[3],
		"byteOffset":0,
		"min":[0]
	},
	{
		"bufferView":13,
		"type":"VEC3",
		"componentType":5126,
		"count":4,
		"max":[0.04284737631678581,
		0.14604923129081727,
		0.0554862841963768],
		"byteOffset":0,
		"min":[0.0026325189974159004,
		0.037288885563611987,
		0.046543464064598086]
	},
	{
		"bufferView":13,
		"type":"VEC3",
		"componentType":5126,
		"count":4,
		"max":[0.0,
		0.0819375067949295,
		0.9966250658035278],
		"byteOffset":12,
		"min":[0.0,
		0.0819375067949295,
		0.9966250658035278]
	},
	{
		"bufferView":13,
		"type":"VEC2",
		"componentType":5126,
		"count":4,
		"max":[0.998462975025177,
		0.7629690170288086],
		"byteOffset":24,
		"min":[0.8815640211105347,
		0.006577000021934509]
	},
	{
		"bufferView":14,
		"type":"SCALAR",
		"componentType":5123,
		"count":324,
		"max":[127],
		"byteOffset":0,
		"min":[0]
	},
	{
		"bufferView":15,
		"type":"VEC3",
		"componentType":5126,
		"count":128,
		"max":[0.03225114196538925,
		0.11193015426397324,
		0.04736402630805969],
		"byteOffset":0,
		"min":[0.009378794580698014,
		0.08787912130355835,
		-0.04827524721622467]
	},
	{
		"bufferView":15,
		"type":"VEC3",
		"componentType":5126,
		"count":128,
		"max":[0.9740312695503235,
		1.0,
		1.0],
		"byteOffset":12,
		"min":[-0.9740312695503235,
		-1.0,
		-1.0]
	},
	{
		"bufferView":15,
		"type":"VEC2",
		"componentType":5126,
		"count":128,
		"max":[0.5831019878387451,
		0.9856119155883789],
		"byteOffset":24,
		"min":[0.24868500232696534,
		0.07752799987792969]
	},
	{
		"bufferView":16,
		"type":"SCALAR",
		"componentType":5123,
		"count":324,
		"max":[127],
		"byteOffset":0,
		"min":[0]
	},
	{
		"bufferView":17,
		"type":"VEC3",
		"componentType":5126,
		"count":128,
		"max":[0.04390547797083855,
		0.05598990246653557,
		0.05251612886786461],
		"byteOffset":0,
		"min":[0.021033301949501039,
		0.03193904086947441,
		-0.05245107784867287]
	},
	{
		"bufferView":17,
		"type":"VEC3",
		"componentType":5126,
		"count":128,
		"max":[0.9740312695503235,
		1.0,
		1.0],
		"byteOffset":12,
		"min":[-0.9740312695503235,
		-1.0,
		-1.0]
	},
	{
		"bufferView":17,
		"type":"VEC2",
		"componentType":5126,
		"count":128,
		"max":[0.47163501381874087,
		0.9847586154937744],
		"byteOffset":24,
		"min":[0.3045699894428253,
		0.013628998771309853]
	},
	{
		"bufferView":18,
		"type":"SCALAR",
		"componentType":5123,
		"count":324,
		"max":[127],
		"byteOffset":0,
		"min":[0]
	},
	{
		"bufferView":19,
		"type":"VEC3",
		"componentType":5126,
		"count":128,
		"max":[0.05652933195233345,
		0.000049827278417069468,
		0.056514281779527667],
		"byteOffset":0,
		"min":[0.03365698456764221,
		-0.02400103583931923,
		-0.056932609528303149]
	},
	{
		"bufferView":19,
		"type":"VEC3",
		"componentType":5126,
		"count":128,
		"max":[0.9740312695503235,
		1.0,
		1.0],
		"byteOffset":12,
		"min":[-0.9740312695503235,
		-1.0,
		-1.0]
	},
	{
		"bufferView":19,
		"type":"VEC2",
		"componentType":5126,
		"count":128,
		"max":[0.4236550033092499,
		0.9847586154937744],
		"byteOffset":24,
		"min":[0.2466520071029663,
		0.20065900683403016]
	},
	{
		"bufferView":20,
		"type":"SCALAR",
		"componentType":5123,
		"count":324,
		"max":[127],
		"byteOffset":0,
		"min":[0]
	},
	{
		"bufferView":21,
		"type":"VEC3",
		"componentType":5126,
		"count":128,
		"max":[0.06871046870946884,
		-0.05589025095105171,
		0.0614079125225544],
		"byteOffset":0,
		"min":[0.0458381213247776,
		-0.0799412876367569,
		-0.061916202306747439]
	},
	{
		"bufferView":21,
		"type":"VEC3",
		"componentType":5126,
		"count":128,
		"max":[0.9740312695503235,
		1.0,
		1.0],
		"byteOffset":12,
		"min":[-0.9740312695503235,
		-1.0,
		-1.0]
	},
	{
		"bufferView":21,
		"type":"VEC2",
		"componentType":5126,
		"count":128,
		"max":[0.2455040067434311,
		0.9847586154937744],
		"byteOffset":24,
		"min":[0.04573829844594002,
		0.18261298537254334]
	},
	{
		"bufferView":22,
		"type":"SCALAR",
		"componentType":5123,
		"count":324,
		"max":[127],
		"byteOffset":0,
		"min":[0]
	},
	{
		"bufferView":23,
		"type":"VEC3",
		"componentType":5126,
		"count":128,
		"max":[0.08077361434698105,
		-0.11183033138513565,
		0.06650654971599579],
		"byteOffset":0,
		"min":[0.05790126696228981,
		-0.13588136434555055,
		-0.06602213531732559]
	},
	{
		"bufferView":23,
		"type":"VEC3",
		"componentType":5126,
		"count":128,
		"max":[0.9740312695503235,
		1.0,
		1.0],
		"byteOffset":12,
		"min":[-0.9740312695503235,
		-1.0,
		-1.0]
	},
	{
		"bufferView":23,
		"type":"VEC2",
		"componentType":5126,
		"count":128,
		"max":[0.1637759953737259,
		0.9847586154937744],
		"byteOffset":24,
		"min":[0.019449900835752488,
		0.18284398317337037]
	},
	{
		"bufferView":24,
		"type":"SCALAR",
		"componentType":5123,
		"count":276,
		"max":[87],
		"byteOffset":0,
		"min":[0]
	},
	{
		"bufferView":25,
		"type":"VEC3",
		"componentType":5126,
		"count":88,
		"max":[-0.02004959248006344,
		0.11193015426397324,
		0.04707597196102142],
		"byteOffset":0,
		"min":[-0.02927233651280403,
		0.104763925075531,
		-0.0479871928691864]
	},
	{
		"bufferView":25,
		"type":"VEC3",
		"componentType":5126,
		"count":88,
		"max":[0.9740312695503235,
		1.0,
		1.0],
		"byteOffset":12,
		"min":[-0.9740312695503235,
		-1.0,
		-1.0]
	},
	{
		"bufferView":25,
		"type":"VEC2",
		"componentType":5126,
		"count":88,
		"max":[0.32771798968315127,
		0.5651179552078247],
		"byteOffset":24,
		"min":[0.24508999288082124,
		0.2570619583129883]
	},
	{
		"bufferView":26,
		"type":"SCALAR",
		"componentType":5123,
		"count":276,
		"max":[87],
		"byteOffset":0,
		"min":[0]
	},
	{
		"bufferView":27,
		"type":"VEC3",
		"componentType":5126,
		"count":88,
		"max":[-0.03170410171151161,
		0.05598990246653557,
		0.05222807452082634],
		"byteOffset":0,
		"min":[-0.04092666879296303,
		0.048823848366737369,
		-0.0521630235016346]
	},
	{
		"bufferView":27,
		"type":"VEC3",
		"componentType":5126,
		"count":88,
		"max":[0.9740312695503235,
		1.0,
		1.0],
		"byteOffset":12,
		"min":[-0.9740312695503235,
		-1.0,
		-1.0]
	},
	{
		"bufferView":27,
		"type":"VEC2",
		"componentType":5126,
		"count":88,
		"max":[0.16312600672245027,
		0.5632729530334473],
		"byteOffset":24,
		"min":[0.08788180351257324,
		0.2589079737663269]
	},
	{
		"bufferView":28,
		"type":"SCALAR",
		"componentType":5123,
		"count":276,
		"max":[87],
		"byteOffset":0,
		"min":[0]
	},
	{
		"bufferView":29,
		"type":"VEC3",
		"componentType":5126,
		"count":88,
		"max":[-0.044327784329652789,
		0.000049827278417069468,
		0.056226227432489398],
		"byteOffset":0,
		"min":[-0.05355052649974823,
		-0.007116281893104315,
		-0.05664455518126488]
	},
	{
		"bufferView":29,
		"type":"VEC3",
		"componentType":5126,
		"count":88,
		"max":[0.9740312695503235,
		1.0,
		1.0],
		"byteOffset":12,
		"min":[-0.9740312695503235,
		-1.0,
		-1.0]
	},
	{
		"bufferView":29,
		"type":"VEC2",
		"componentType":5126,
		"count":88,
		"max":[0.24198800325393678,
		0.5632729530334473],
		"byteOffset":24,
		"min":[0.16674399375915528,
		0.2589079737663269]
	},
	{
		"bufferView":30,
		"type":"SCALAR",
		"componentType":5123,
		"count":276,
		"max":[87],
		"byteOffset":0,
		"min":[0]
	},
	{
		"bufferView":31,
		"type":"VEC3",
		"componentType":5126,
		"count":88,
		"max":[-0.05650891736149788,
		-0.05589025095105171,
		0.06111985817551613],
		"byteOffset":0,
		"min":[-0.06573165953159332,
		-0.06305648386478424,
		-0.0616283193230629]
	},
	{
		"bufferView":31,
		"type":"VEC3",
		"componentType":5126,
		"count":88,
		"max":[0.9740312695503235,
		1.0,
		1.0],
		"byteOffset":12,
		"min":[-0.9740312695503235,
		-1.0,
		-1.0]
	},
	{
		"bufferView":31,
		"type":"VEC2",
		"componentType":5126,
		"count":88,
		"max":[0.07924660295248032,
		0.5632729530334473],
		"byteOffset":24,
		"min":[0.004002329893410206,
		0.2589079737663269]
	},
	{
		"bufferView":32,
		"type":"SCALAR",
		"componentType":5123,
		"count":276,
		"max":[87],
		"byteOffset":0,
		"min":[0]
	},
	{
		"bufferView":33,
		"type":"VEC3",
		"componentType":5126,
		"count":88,
		"max":[-0.06857206672430039,
		-0.11183033138513565,
		0.06621850281953812],
		"byteOffset":0,
		"min":[-0.07779480516910553,
		-0.11899656057357788,
		-0.06573408097028732]
	},
	{
		"bufferView":33,
		"type":"VEC3",
		"componentType":5126,
		"count":88,
		"max":[0.9740312695503235,
		1.0,
		1.0],
		"byteOffset":12,
		"min":[-0.9740312695503235,
		-1.0,
		-1.0]
	},
	{
		"bufferView":33,
		"type":"VEC2",
		"componentType":5126,
		"count":88,
		"max":[0.40774300694465639,
		0.5632729530334473],
		"byteOffset":24,
		"min":[0.3324980139732361,
		0.2589079737663269]
	}],
	"nodes":[{
		"name":"ladder",
		"translation":[0.06413832306861878,
		0.18459808826446534,
		0.027606453746557237],
		"rotation":[0.0,
		0.0,
		0.0,
		-1.0],
		"scale":[1.0,
		1.0,
		1.0],
		"children":[1,
		2,
		3,
		4,
		5,
		6,
		7,
		8,
		9,
		10,
		11,
		12,
		13,
		14,
		15,
		16,
		17]
	},
	{
		"name":"ladderTop",
		"translation":[0.0,
		0.0,
		0.0],
		"rotation":[0.0,
		0.0,
		0.0,
		-1.0],
		"scale":[1.0,
		1.0,
		1.0],
		"mesh":0
	},
	{
		"name":"LeftLegs1",
		"translation":[0.0,
		0.0,
		0.0],
		"rotation":[0.0,
		0.0,
		0.0,
		-1.0],
		"scale":[1.0,
		1.0,
		1.0],
		"mesh":1
	},
	{
		"name":"LeftLegs",
		"translation":[0.0,
		0.0,
		0.0],
		"rotation":[0.0,
		0.0,
		0.0,
		-1.0],
		"scale":[1.0,
		1.0,
		1.0],
		"mesh":2
	},
	{
		"name":"LeftMetalConnector",
		"translation":[0.0,
		0.0,
		0.0],
		"rotation":[0.0,
		0.0,
		0.0,
		-1.0],
		"scale":[1.0,
		1.0,
		1.0],
		"mesh":3
	},
	{
		"name":"RightMetalConnector",
		"translation":[0.0,
		0.0,
		0.0],
		"rotation":[0.0,
		0.0,
		0.0,
		-1.0],
		"scale":[1.0,
		1.0,
		1.0],
		"mesh":4
	},
	{
		"name":"WarningLabel",
		"translation":[0.0,
		0.0,
		0.0],
		"rotation":[0.0,
		0.0,
		0.0,
		-1.0],
		"scale":[1.0,
		1.0,
		1.0],
		"mesh":5
	},
	{
		"name":"InfoSticker",
		"translation":[0.0,
		0.0,
		0.0],
		"rotation":[0.0,
		0.0,
		0.0,
		-1.0],
		"scale":[1.0,
		1.0,
		1.0],
		"mesh":6
	},
	{
		"name":"step05",
		"translation":[0.0,
		0.0,
		0.0],
		"rotation":[0.0,
		0.0,
		0.0,
		-1.0],
		"scale":[1.0,
		1.0,
		1.0],
		"mesh":7
	},
	{
		"name":"step04",
		"translation":[0.0,
		0.0,
		0.0],
		"rotation":[0.0,
		0.0,
		0.0,
		-1.0],
		"scale":[1.0,
		1.0,
		1.0],
		"mesh":8
	},
	{
		"name":"step03",
		"translation":[0.0,
		0.0,
		0.0],
		"rotation":[0.0,
		0.0,
		0.0,
		-1.0],
		"scale":[1.0,
		1.0,
		1.0],
		"mesh":9
	},
	{
		"name":"step02",
		"translation":[0.0,
		0.0,
		0.0],
		"rotation":[0.0,
		0.0,
		0.0,
		-1.0],
		"scale":[1.0,
		1.0,
		1.0],
		"mesh":10
	},
	{
		"name":"step01",
		"translation":[0.0,
		0.0,
		0.0],
		"rotation":[0.0,
		0.0,
		0.0,
		-1.0],
		"scale":[1.0,
		1.0,
		1.0],
		"mesh":11
	},
	{
		"name":"backRung05",
		"translation":[0.0,
		0.0,
		0.0],
		"rotation":[0.0,
		0.0,
		0.0,
		-1.0],
		"scale":[1.0,
		1.0,
		1.0],
		"mesh":12
	},
	{
		"name":"backRung04",
		"translation":[0.0,
		0.0,
		0.0],
		"rotation":[0.0,
		0.0,
		0.0,
		-1.0],
		"scale":[1.0,
		1.0,
		1.0],
		"mesh":13
	},
	{
		"name":"backRung03",
		"translation":[0.0,
		0.0,
		0.0],
		"rotation":[0.0,
		0.0,
		0.0,
		-1.0],
		"scale":[1.0,
		1.0,
		1.0],
		"mesh":14
	},
	{
		"name":"backRung02",
		"translation":[0.0,
		0.0,
		0.0],
		"rotation":[0.0,
		0.0,
		0.0,
		-1.0],
		"scale":[1.0,
		1.0,
		1.0],
		"mesh":15
	},
	{
		"name":"backRung01",
		"translation":[0.0,
		0.0,
		0.0],
		"rotation":[0.0,
		0.0,
		0.0,
		-1.0],
		"scale":[1.0,
		1.0,
		1.0],
		"mesh":16
	}],
	"meshes":[{
		"name":"ladderTop",
		"primitives":[{
			"attributes":{
				"POSITION":1,
				"NORMAL":2,
				"TEXCOORD_0":3
			},
			"indices":0,
			"material":0
		}]
	},
	{
		"name":"LeftLegs1",
		"primitives":[{
			"attributes":{
				"POSITION":5,
				"NORMAL":6,
				"TEXCOORD_0":7
			},
			"indices":4,
			"material":0
		}]
	},
	{
		"name":"LeftLegs",
		"primitives":[{
			"attributes":{
				"POSITION":9,
				"NORMAL":10,
				"TEXCOORD_0":11
			},
			"indices":8,
			"material":0
		}]
	},
	{
		"name":"LeftMetalConnector",
		"primitives":[{
			"attributes":{
				"POSITION":13,
				"NORMAL":14,
				"TEXCOORD_0":15
			},
			"indices":12,
			"material":0
		}]
	},
	{
		"name":"RightMetalConnector",
		"primitives":[{
			"attributes":{
				"POSITION":17,
				"NORMAL":18,
				"TEXCOORD_0":19
			},
			"indices":16,
			"material":0
		}]
	},
	{
		"name":"WarningLabel",
		"primitives":[{
			"attributes":{
				"POSITION":21,
				"NORMAL":22,
				"TEXCOORD_0":23
			},
			"indices":20,
			"material":0
		}]
	},
	{
		"name":"InfoSticker",
		"primitives":[{
			"attributes":{
				"POSITION":25,
				"NORMAL":26,
				"TEXCOORD_0":27
			},
			"indices":24,
			"material":0
		}]
	},
	{
		"name":"step05",
		"primitives":[{
			"attributes":{
				"POSITION":29,
				"NORMAL":30,
				"TEXCOORD_0":31
			},
			"indices":28,
			"material":0
		}]
	},
	{
		"name":"step04",
		"primitives":[{
			"attributes":{
				"POSITION":33,
				"NORMAL":34,
				"TEXCOORD_0":35
			},
			"indices":32,
			"material":0
		}]
	},
	{
		"name":"step03",
		"primitives":[{
			"attributes":{
				"POSITION":37,
				"NORMAL":38,
				"TEXCOORD_0":39
			},
			"indices":36,
			"material":0
		}]
	},
	{
		"name":"step02",
		"primitives":[{
			"attributes":{
				"POSITION":41,
				"NORMAL":42,
				"TEXCOORD_0":43
			},
			"indices":40,
			"material":0
		}]
	},
	{
		"name":"step01",
		"primitives":[{
			"attributes":{
				"POSITION":45,
				"NORMAL":46,
				"TEXCOORD_0":47
			},
			"indices":44,
			"material":0
		}]
	},
	{
		"name":"backRung05",
		"primitives":[{
			"attributes":{
				"POSITION":49,
				"NORMAL":50,
				"TEXCOORD_0":51
			},
			"indices":48,
			"material":0
		}]
	},
	{
		"name":"backRung04",
		"primitives":[{
			"attributes":{
				"POSITION":53,
				"NORMAL":54,
				"TEXCOORD_0":55
			},
			"indices":52,
			"material":0
		}]
	},
	{
		"name":"backRung03",
		"primitives":[{
			"attributes":{
				"POSITION":57,
				"NORMAL":58,
				"TEXCOORD_0":59
			},
			"indices":56,
			"material":0
		}]
	},
	{
		"name":"backRung02",
		"primitives":[{
			"attributes":{
				"POSITION":61,
				"NORMAL":62,
				"TEXCOORD_0":63
			},
			"indices":60,
			"material":0
		}]
	},
	{
		"name":"backRung01",
		"primitives":[{
			"attributes":{
				"POSITION":65,
				"NORMAL":66,
				"TEXCOORD_0":67
			},
			"indices":64,
			"material":0
		}]
	}],
	"buffers":[{
		"uri":"data:application/octet-stream;base64,",
		"byteLength":9384
	},
	{
		"uri":"data:application/octet-stream;base64,",
		"byteLength":9296
	},
	{
		"uri":"data:application/octet-stream;base64,",
		"byteLength":9296
	},
	{
		"uri":"data:application/octet-stream;base64,",
		"byteLength":6696
	},
	{
		"uri":"data:application/octet-stream;base64,",
		"byteLength":8680
	},
	{
		"uri":"data:application/octet-stream;base64,",
		"byteLength":140
	},
	{
		"uri":"data:application/octet-stream;base64,",
		"byteLength":140
	},
	{
		"uri":"data:application/octet-stream;base64,",
		"byteLength":4744
	},
	{
		"uri":"data:application/octet-stream;base64,",
		"byteLength":4744
	},
	{
		"uri":"data:application/octet-stream;base64,",
		"byteLength":4744
	},
	{
		"uri":"data:application/octet-stream;base64,",
		"byteLength":4744
	},
	{
		"uri":"data:application/octet-stream;base64,",
		"byteLength":4744
	},
	{
		"uri":"data:application/octet-stream;base64,",
		"byteLength":3368
	},
	{
		"uri":"data:application/octet-stream;base64,",
		"byteLength":3368
	},
	{
		"uri":"data:application/octet-stream;base64,",
		"byteLength":3368
	},
	{
		"uri":"data:application/octet-stream;base64,",
		"byteLength":3368
	},
	{
		"uri":"data:application/octet-stream;base64,",
		"byteLength":3368
	}],
	"materials":[{
		"pbrMetallicRoughness":{
			"baseColorFactor":[1.0,
			0.41666666666666676,
			0.0,
			1.0],
			"metallicFactor":1.0,
			"roughnessFactor":1.0
		},
		"emissiveFactor":[0.0,
		0.0,
		0.0],
		"alphaMode":"OPAQUE",
		"doubleSided":true,
		"name":"lambert1"
	}]
}