{
	"asset":{
		"version":"2.0",
		"generator":"Created using the official Cinema 4D glTF Exporter 1.000x284978"
	},
	"bufferViews":[{
		"buffer":0,
		"byteOffset":0,
		"byteLength":3620
	},
	{
		"buffer":1,
		"byteOffset":0,
		"byteLength":265422,
		"target":34963
	},
	{
		"buffer":1,
		"byteOffset":265424,
		"byteLength":811040,
		"target":34962,
		"byteStride":32
	}],
	"scenes":[{
		"nodes":[0]
	}],
	"accessors":[{
		"bufferView":0,
		"type":"SCALAR",
		"componentType":5126,
		"count":181,
		"max":[6.0],
		"byteOffset":0,
		"min":[0.0]
	},
	{
		"bufferView":0,
		"type":"VEC4",
		"componentType":5126,
		"count":181,
		"max":[6.092183646444482e-9,
		0.0,
		4.289108623822813e-9,
		1.0],
		"byteOffset":724,
		"min":[0.0,
		-1.0,
		0.0,
		-1.0]
	},
	{
		"bufferView":1,
		"type":"SCALAR",
		"componentType":5123,
		"count":132711,
		"max":[25344],
		"byteOffset":0,
		"min":[0]
	},
	{
		"bufferView":2,
		"type":"VEC3",
		"componentType":5126,
		"count":25345,
		"max":[7.869082450866699,
		7.521750450134277,
		3.569190740585327],
		"byteOffset":0,
		"min":[-7.906164646148682,
		-0.09877578914165497,
		-4.967141628265381]
	},
	{
		"bufferView":2,
		"type":"VEC3",
		"componentType":5126,
		"count":25345,
		"max":[0.9998095631599426,
		0.9999871850013733,
		0.9999794363975525],
		"byteOffset":12,
		"min":[-0.9998920559883118,
		-0.9995799660682678,
		-0.9999646544456482]
	},
	{
		"bufferView":2,
		"type":"VEC2",
		"componentType":5126,
		"count":25345,
		"max":[0.9954040050506592,
		0.999984622001648],
		"byteOffset":24,
		"min":[0.00002455889989505522,
		0.00007999999797903001]
	}],
	"nodes":[{
		"name":"teapot",
		"translation":[0.0,
		0.0,
		0.0],
		"rotation":[0.0,
		0.0,
		0.0,
		-1.0],
		"scale":[1.0,
		1.0,
		1.0],
		"children":[1]
	},
	{
		"name":"Default",
		"translation":[1.064529538154602,
		-0.6582504510879517,
		1.3696650266647339],
		"rotation":[0.0,
		0.0,
		0.0,
		-1.0],
		"scale":[1.0,
		1.0,
		1.0],
		"mesh":0
	}],
	"meshes":[{
		"name":"Default",
		"primitives":[{
			"attributes":{
				"POSITION":3,
				"NORMAL":4,
				"TEXCOORD_0":5
			},
			"indices":2,
			"material":0
		}]
	}],
	"buffers":[{
		"uri":"data:application/octet-stream;base64,",
		"byteLength":3620
	},
	{
		"uri":"data:application/octet-stream;base64,",
		"byteLength":1076464
	}],
	"materials":[{
		"pbrMetallicRoughness":{
			"baseColorFactor":[0.488,
			0.8,
			0.6128000000000001,
			1.0],
			"metallicFactor":1.0,
			"roughnessFactor":1.0
		},
		"emissiveFactor":[0.0,
		0.0,
		0.0],
		"alphaMode":"OPAQUE",
		"doubleSided":true,
		"name":"Mat"
	}],
	"animations":[{
		"samplers":[{
			"output":1,
			"input":0,
			"interpolation":"LINEAR"
		}],
		"channels":[{
			"sampler":0,
			"target":{
				"node":0,
				"path":"rotation"
			}
		}]
	}]
}